<?xml version="1.0" encoding="UTF-8"?>
<svg version="1.1" xmlns="http://www.w3.org/2000/svg" width="623" height="201">
<path d="M0 0 C4.29 0 8.58 0 13 0 C13.62803762 3.22860115 14.25246746 6.45783653 14.875 9.6875 C15.04902344 10.58017578 15.22304687 11.47285156 15.40234375 12.39257812 C16.78155277 19.56957321 17.92782751 26.77113315 19 34 C19.02476851 29.80078534 19.04289246 25.60160971 19.05493164 21.40234375 C19.05995206 19.97460184 19.06676972 18.54686504 19.07543945 17.11914062 C19.08760553 15.06378921 19.09325128 13.00850593 19.09765625 10.953125 C19.10289307 9.71723633 19.10812988 8.48134766 19.11352539 7.20800781 C19.10545425 3.83227442 19.10545425 3.83227442 18 0 C21.63 0 25.26 0 29 0 C28.67 0.99 28.34 1.98 28 3 C27.30404753 9.31215831 27.2587369 15.71205321 27.10058594 22.05566406 C27.03416971 24.16486282 26.93901254 26.27337593 26.81347656 28.37988281 C26.63447391 31.4480851 26.55835364 34.50551923 26.5 37.578125 C26.42571777 38.4974884 26.35143555 39.41685181 26.27490234 40.36407471 C26.30228288 52.26065243 33.73117908 54.73117908 43 64 C44.98 42.88 46.96 21.76 49 0 C52.3 0 55.6 0 59 0 C59.05819916 0.92850266 59.11639832 1.85700531 59.17636108 2.81364441 C59.72662312 11.56874107 60.28489142 20.32328263 60.8521328 29.07729626 C61.1434672 33.57771264 61.4317146 38.07828231 61.71289062 42.5793457 C61.98441299 46.92404298 62.26406568 51.26814775 62.54933548 55.61196327 C62.65668384 57.26833942 62.76111367 58.92490742 62.86256027 60.5816555 C63.00527929 62.90421657 63.15841104 65.22587552 63.31396484 67.54760742 C63.37330956 68.57260094 63.37330956 68.57260094 63.43385315 69.61830139 C63.70191487 73.43368605 64.36975387 76.5351487 66 80 C64.515 80.495 64.515 80.495 63 81 C121.75985128 121.22627811 192.98036791 142.3689545 264.34912109 129.50048828 C265.22391113 129.33532715 266.09870117 129.17016602 267 129 C267.93537598 128.82839355 268.87075195 128.65678711 269.83447266 128.47998047 C308.65033721 121.17630594 344.9514853 106.13463286 377 83 C378.485 82.01 378.485 82.01 380 81 C378.02 80.67 376.04 80.34 374 80 C374.32162109 79.27425781 374.64324219 78.54851562 374.97460938 77.80078125 C382.73073467 56.61547901 373.20409191 24.53814445 370 3 C369.34 3 368.68 3 368 3 C368 2.01 368 1.02 368 0 C372.29 0 376.58 0 381 0 C381 0.99 381 1.98 381 3 C380.34 3 379.68 3 379 3 C379.66 8.61 380.32 14.22 381 20 C381.350625 17.4425 381.70125 14.885 382.0625 12.25 C382.17601807 11.45110352 382.28953613 10.65220703 382.40649414 9.82910156 C382.89362283 6.10648192 382.92364461 3.69457844 382 0 C386.29 0 390.58 0 395 0 C395 0.99 395 1.98 395 3 C394.01 3 393.02 3 392 3 C391.91959473 3.67877197 391.83918945 4.35754395 391.75634766 5.05688477 C391.38034448 8.22555631 391.00267469 11.39402727 390.625 14.5625 C390.49867188 15.62919922 390.37234375 16.69589844 390.2421875 17.79492188 C390.11328125 18.87451172 389.984375 19.95410156 389.8515625 21.06640625 C389.7170166 22.19506104 389.5824707 23.32371582 389.44384766 24.48657227 C389.14499423 26.85224861 388.82123861 29.21489695 388.47412109 31.57397461 C387.06560772 41.22273976 386.58166925 50.70789933 386.375 60.4375 C386.33667417 61.95900311 386.29761496 63.48048793 386.2578125 65.00195312 C386.16346556 68.66779799 386.07888469 72.33378584 386 76 C387.74086852 74.59825925 389.47851841 73.19252069 391.21484375 71.78515625 C392.18284912 71.00277588 393.15085449 70.22039551 394.14819336 69.41430664 C397.46568531 66.60575618 400.47120088 63.60140115 403.44140625 60.43359375 C405 59 405 59 407 59 C407.226875 58.443125 407.45375 57.88625 407.6875 57.3125 C410.15838962 52.95902782 413.94485032 49.85362385 418 47 C416.40274799 50.81716159 413.85596259 53.58409759 411.0625 56.5625 C410.33812744 57.34270508 410.33812744 57.34270508 409.59912109 58.13867188 C396.95570146 71.66970784 396.95570146 71.66970784 391.3046875 76.125 C388.80853007 77.9672242 388.80853007 77.9672242 387 81 C385.66966958 81.67263898 384.33563214 82.33795091 383 83 C380.91070611 84.62056038 378.85835103 86.26420128 376.8125 87.9375 C345.17571765 113.20014321 306.69452917 129.6467862 267 137 C266.14229004 137.16371094 265.28458008 137.32742187 264.40087891 137.49609375 C236.59013569 142.55164294 204.73238785 142.4567629 177 137 C176.06430176 136.82307617 175.12860352 136.64615234 174.16455078 136.46386719 C163.51315708 134.41667816 153.03163637 131.86918516 142.625 128.8125 C141.76817627 128.56266357 140.91135254 128.31282715 140.02856445 128.05541992 C137.99834203 127.43429973 135.99534632 126.7253871 134 126 C133.67 125.34 133.34 124.68 133 124 C131.33646144 123.65139082 129.66889563 123.32198801 128 123 C103.49814692 113.63510904 76.72494404 99.72494404 58 81 C56.06742145 80.63168919 56.06742145 80.63168919 53.8671875 80.5859375 C53.06152344 80.54726562 52.25585938 80.50859375 51.42578125 80.46875 C50.58402344 80.4378125 49.74226563 80.406875 48.875 80.375 C48.02550781 80.33632812 47.17601562 80.29765625 46.30078125 80.2578125 C44.20088316 80.16343506 42.10047109 80.08062414 40 80 C40 79.01 40 78.02 40 77 C40.66 77 41.32 77 42 77 C42.67386192 73.48094332 42.79252047 70.50905146 42 67 C39.7580697 64.08213191 37.33152244 61.75960683 34.578125 59.32421875 C32 57 32 57 28 52 C27.67 61.24 27.34 70.48 27 80 C24.03 80 21.06 80 18 80 C15.47961334 67.02704534 13.11694943 54.04476663 11 41 C10.97528812 46.07201786 10.95713436 51.14400071 10.94506836 56.21606445 C10.94003842 57.9416566 10.93321374 59.66724448 10.92456055 61.39282227 C10.91243639 63.8725693 10.90675831 66.35226 10.90234375 68.83203125 C10.89718246 69.60400345 10.89202118 70.37597565 10.88670349 71.17134094 C10.88636682 74.3830228 10.97673422 76.93020266 12 80 C8.04 80 4.08 80 0 80 C0 79.34 0 78.68 0 78 C0.99 77.505 0.99 77.505 2 77 C2.04633574 67.55108138 2.0818755 58.10220186 2.10362434 48.65319443 C2.11406257 44.26566302 2.12822249 39.87820933 2.15087891 35.49072266 C2.17260589 31.25673915 2.18456834 27.02283042 2.18975449 22.78879547 C2.1934505 21.17325921 2.20066785 19.55772704 2.21146011 17.9422226 C2.22597318 15.67981617 2.22797803 13.41771891 2.22705078 11.15527344 C2.231492 9.86731873 2.23593323 8.57936401 2.24050903 7.25238037 C2.18811208 3.74283371 2.18811208 3.74283371 0 0 Z M52 38 C51.505 48.395 51.505 48.395 51 59 C51.99 59 52.98 59 54 59 C54.02719556 56.62492145 54.04693247 54.25016036 54.0625 51.875 C54.07087891 51.20984375 54.07925781 50.5446875 54.08789062 49.859375 C54.10782292 45.79318646 53.78890161 41.9879908 53 38 C52.67 38 52.34 38 52 38 Z M50 65 C49.58190799 67.83151973 49.58190799 67.83151973 50 71 C52.37842577 73.40406384 52.37842577 73.40406384 55 75 C54.67 71.7 54.34 68.4 54 65 C52.68 65 51.36 65 50 65 Z M50 74 C50.33 75.32 50.66 76.64 51 78 C51.66 78 52.32 78 53 78 C52.34 76.68 51.68 75.36 51 74 C50.67 74 50.34 74 50 74 Z " fill="#292929" transform="translate(98,36)"/>
<path d="M0 0 C8.91 0 17.82 0 27 0 C27 0.99 27 1.98 27 3 C26.34 3 25.68 3 25 3 C26.98 16.86 28.96 30.72 31 45 C31.33 45 31.66 45 32 45 C32.71964269 40.30547981 33.43142714 35.60985697 34.13623047 30.91308594 C34.37663252 29.31836524 34.61910858 27.72395567 34.86376953 26.12988281 C35.21684332 23.82697705 35.56222615 21.52302298 35.90625 19.21875 C36.0156189 18.51633179 36.12498779 17.81391357 36.2376709 17.09020996 C37.07905467 11.3738791 37.85492992 5.56478976 36 0 C39.63 0 43.26 0 47 0 C47 3 47 3 46.06008911 5.31671143 C44.90880606 8.23082933 44.45431732 10.82946032 44.03857422 13.93261719 C43.87855927 15.10443542 43.71854431 16.27625366 43.55368042 17.48358154 C43.38901276 18.74196838 43.22434509 20.00035522 43.0546875 21.296875 C42.87994904 22.6002179 42.70521057 23.90356079 42.525177 25.24639893 C42.15627974 28.00291735 41.7920418 30.7600002 41.43115234 33.51757812 C40.97116435 37.0298267 40.50013028 40.54048466 40.02558708 44.05079269 C39.57109561 47.42371586 39.12578046 50.79783068 38.6796875 54.171875 C38.51097137 55.42216492 38.34225525 56.67245483 38.16842651 57.96063232 C36.44611135 69.06536123 36.44611135 69.06536123 38 80 C33.05 80 28.1 80 23 80 C23.495 78.515 23.495 78.515 24 77 C24.57723463 68.16364252 23.49196418 59.51072835 22.28515625 50.7734375 C22.10760396 49.45024329 21.93064915 48.12696878 21.7542572 46.80361938 C21.38668265 44.05833811 21.01394214 41.31382956 20.63696289 38.56982422 C20.15375076 35.05146481 19.68084385 31.53181488 19.21134281 28.0116024 C18.76090652 24.63998566 18.3042411 21.26922737 17.84765625 17.8984375 C17.6778273 16.63397797 17.50799835 15.36951843 17.33302307 14.06674194 C17.09288734 12.32319931 17.09288734 12.32319931 16.84790039 10.54443359 C16.70800186 9.51917572 16.56810333 8.49391785 16.42396545 7.43759155 C16.12055456 5.00166415 16.12055456 5.00166415 15 3 C14.34 3 13.68 3 13 3 C11.51796221 5.96407559 11.88079174 8.62079165 11.88647461 11.92822266 C11.88632858 12.64052536 11.88618256 13.35282806 11.8860321 14.0867157 C11.88672989 16.44586206 11.89451603 18.80492989 11.90234375 21.1640625 C11.9042084 22.79788164 11.90563208 24.43170134 11.90663147 26.06552124 C11.91045291 30.3694818 11.92028002 34.67340871 11.93133545 38.97735596 C11.94155758 43.36771184 11.94613081 47.75807315 11.95117188 52.1484375 C11.96190261 60.76564046 11.97897457 69.38281604 12 78 C12.66 78 13.32 78 14 78 C14 78.66 14 79.32 14 80 C9.38 80 4.76 80 0 80 C0 79.34 0 78.68 0 78 C0.99 77.505 0.99 77.505 2 77 C2.04633574 67.55108138 2.0818755 58.10220186 2.10362434 48.65319443 C2.11406257 44.26566302 2.12822249 39.87820933 2.15087891 35.49072266 C2.17260589 31.25673915 2.18456834 27.02283042 2.18975449 22.78879547 C2.1934505 21.17325921 2.20066785 19.55772704 2.21146011 17.9422226 C2.22597318 15.67981617 2.22797803 13.41771891 2.22705078 11.15527344 C2.231492 9.86731873 2.23593323 8.57936401 2.24050903 7.25238037 C2.18811208 3.74283371 2.18811208 3.74283371 0 0 Z " fill="#292929" transform="translate(548,36)"/>
<path d="M0 0 C4.62 0 9.24 0 14 0 C15.65 11.22 17.3 22.44 19 34 C19 23.44 19 12.88 19 2 C18.34 1.67 17.68 1.34 17 1 C18 0 18 0 20.50390625 -0.09765625 C22.01791016 -0.08025391 22.01791016 -0.08025391 23.5625 -0.0625 C24.57441406 -0.05347656 25.58632813 -0.04445312 26.62890625 -0.03515625 C27.80259766 -0.01775391 27.80259766 -0.01775391 29 0 C28.67 0.99 28.34 1.98 28 3 C27.88061589 5.47793696 27.81479492 7.92998076 27.79467773 10.40893555 C27.77982834 11.53613007 27.77982834 11.53613007 27.76467896 12.68609619 C27.73309504 15.16960501 27.70831884 17.65313296 27.68359375 20.13671875 C27.66302154 21.85879513 27.64202499 23.5808665 27.62062073 25.30293274 C27.56542766 29.83533666 27.51600618 34.36778594 27.46777344 38.90026855 C27.41753824 43.52535031 27.36186271 48.1503662 27.30664062 52.77539062 C27.19909287 61.85020414 27.09764036 70.92507486 27 80 C22.545 80.495 22.545 80.495 18 81 C16.94771218 76.79084874 16.25580145 72.57849364 15.58984375 68.296875 C15.47290161 67.5538916 15.35595947 66.8109082 15.23547363 66.04541016 C14.80084366 63.28058273 14.36935766 60.51526181 13.9375 57.75 C12.968125 51.5625 11.99875 45.375 11 39 C11 51.87 11 64.74 11 78 C11.66 78 12.32 78 13 78 C13 78.66 13 79.32 13 80 C8.71 80 4.42 80 0 80 C0 79.34 0 78.68 0 78 C0.99 77.505 0.99 77.505 2 77 C2.33 52.91 2.66 28.82 3 4 C2.34 3.67 1.68 3.34 1 3 C0.67 2.01 0.34 1.02 0 0 Z " fill="#242424" transform="translate(308,36)"/>
<path d="M0 0 C4.29 0 8.58 0 13 0 C13.62803762 3.22860115 14.25246746 6.45783653 14.875 9.6875 C15.04902344 10.58017578 15.22304687 11.47285156 15.40234375 12.39257812 C16.78155277 19.56957321 17.92782751 26.77113315 19 34 C19.02476851 29.80078534 19.04289246 25.60160971 19.05493164 21.40234375 C19.05995206 19.97460184 19.06676972 18.54686504 19.07543945 17.11914062 C19.08760553 15.06378921 19.09325128 13.00850593 19.09765625 10.953125 C19.10289307 9.71723633 19.10812988 8.48134766 19.11352539 7.20800781 C19.10545425 3.83227442 19.10545425 3.83227442 18 0 C21.63 0 25.26 0 29 0 C28.34 1.32 27.68 2.64 27 4 C26.79216433 6.51238597 26.68894871 8.91772534 26.68115234 11.43066406 C26.67110672 12.17251953 26.6610611 12.914375 26.65071106 13.67871094 C26.61988551 16.12434127 26.60284585 18.56986216 26.5859375 21.015625 C26.56722533 22.71385642 26.54765188 24.41207854 26.5272522 26.11029053 C26.47593013 30.57526165 26.43630483 35.04026292 26.39910889 39.50537109 C26.35906971 44.06355242 26.30797697 48.62160835 26.2578125 53.1796875 C26.16105233 62.11970357 26.07664782 71.05979046 26 80 C23.36 80 20.72 80 18 80 C15.4754349 67.02809407 13.1169085 54.04451446 11 41 C10.97528812 46.07201786 10.95713436 51.14400071 10.94506836 56.21606445 C10.94003842 57.9416566 10.93321374 59.66724448 10.92456055 61.39282227 C10.91243639 63.8725693 10.90675831 66.35226 10.90234375 68.83203125 C10.89718246 69.60400345 10.89202118 70.37597565 10.88670349 71.17134094 C10.88636682 74.3830228 10.97673422 76.93020266 12 80 C8.04 80 4.08 80 0 80 C0 79.34 0 78.68 0 78 C0.99 77.505 0.99 77.505 2 77 C2.04633574 67.55108138 2.0818755 58.10220186 2.10362434 48.65319443 C2.11406257 44.26566302 2.12822249 39.87820933 2.15087891 35.49072266 C2.17260589 31.25673915 2.18456834 27.02283042 2.18975449 22.78879547 C2.1934505 21.17325921 2.20066785 19.55772704 2.21146011 17.9422226 C2.22597318 15.67981617 2.22797803 13.41771891 2.22705078 11.15527344 C2.231492 9.86731873 2.23593323 8.57936401 2.24050903 7.25238037 C2.18811208 3.74283371 2.18811208 3.74283371 0 0 Z " fill="#1D1D1D" transform="translate(98,36)"/>
<path d="M0 0 C3.3 0 6.6 0 10 0 C10.05819916 0.92850266 10.11639832 1.85700531 10.17636108 2.81364441 C10.72662312 11.56874107 11.28489142 20.32328263 11.8521328 29.07729626 C12.1434672 33.57771264 12.4317146 38.07828231 12.71289062 42.5793457 C12.98441299 46.92404298 13.26406568 51.26814775 13.54933548 55.61196327 C13.65668384 57.26833942 13.76111367 58.92490742 13.86256027 60.5816555 C14.00527929 62.90421657 14.15841104 65.22587552 14.31396484 67.54760742 C14.37330956 68.57260094 14.37330956 68.57260094 14.43385315 69.61830139 C14.70191487 73.43368605 15.36975387 76.5351487 17 80 C16.01 80.33 15.02 80.66 14 81 C14.99 81.99 14.99 81.99 16 83 C13.625 83.125 13.625 83.125 11 83 C10.01 82.01 10.01 82.01 9 81 C7.06742145 80.63168919 7.06742145 80.63168919 4.8671875 80.5859375 C4.06152344 80.54726562 3.25585938 80.50859375 2.42578125 80.46875 C1.58402344 80.4378125 0.74226563 80.406875 -0.125 80.375 C-0.97449219 80.33632812 -1.82398438 80.29765625 -2.69921875 80.2578125 C-4.79911684 80.16343506 -6.89952891 80.08062414 -9 80 C-9 79.01 -9 78.02 -9 77 C-8.34 77 -7.68 77 -7 77 C-6.32613808 73.48094332 -6.20747953 70.50905146 -7 67 C-9.2419303 64.08213191 -11.66847756 61.75960683 -14.421875 59.32421875 C-17 57 -17 57 -21 52 C-21.33 61.24 -21.66 70.48 -22 80 C-22.33 80 -22.66 80 -23 80 C-23 54.92 -23 29.84 -23 4 C-22.67 4 -22.34 4 -22 4 C-22.04825928 5.28463135 -22.09651855 6.5692627 -22.14624023 7.89282227 C-22.30733102 12.72940249 -22.36623762 17.56308152 -22.39672852 22.40209961 C-22.42356987 24.48270637 -22.47692382 26.56316708 -22.55883789 28.64233398 C-22.67294392 31.66214647 -22.68659765 34.66968932 -22.68359375 37.69140625 C-22.73913925 38.59830704 -22.79468475 39.50520782 -22.85191345 40.43959045 C-22.60411403 52.24458075 -15.19049477 54.80950523 -6 64 C-4.02 42.88 -2.04 21.76 0 0 Z M3 38 C2.505 48.395 2.505 48.395 2 59 C2.99 59 3.98 59 5 59 C5.02719556 56.62492145 5.04693247 54.25016036 5.0625 51.875 C5.07087891 51.20984375 5.07925781 50.5446875 5.08789062 49.859375 C5.10782292 45.79318646 4.78890161 41.9879908 4 38 C3.67 38 3.34 38 3 38 Z M1 65 C0.58190799 67.83151973 0.58190799 67.83151973 1 71 C3.37842577 73.40406384 3.37842577 73.40406384 6 75 C5.67 71.7 5.34 68.4 5 65 C3.68 65 2.36 65 1 65 Z M1 74 C1.33 75.32 1.66 76.64 2 78 C2.66 78 3.32 78 4 78 C3.34 76.68 2.68 75.36 2 74 C1.67 74 1.34 74 1 74 Z " fill="#242424" transform="translate(147,36)"/>
<path d="M0 0 C3.00284653 2.77763304 4.28920187 5.03983897 5 9 C5.06831987 11.4157906 5.08487642 13.83334713 5.0625 16.25 C5.05347656 17.51328125 5.04445313 18.7765625 5.03515625 20.078125 C5.02355469 21.04234375 5.01195312 22.0065625 5 23 C-1.75 27 -1.75 27 -4 27 C-3.98839844 26.07058594 -3.97679687 25.14117187 -3.96484375 24.18359375 C-3.88246463 15.04290683 -3.88246463 15.04290683 -5 6 C-5.33 6 -5.66 6 -6 6 C-6.61421791 20.70710656 -4.50105533 29.40988767 3.4140625 42.04296875 C6.83979043 48.43034816 7.34047664 54.41631436 7.3125 61.5 C7.32861328 62.31597656 7.34472656 63.13195312 7.36132812 63.97265625 C7.36627196 70.13267548 6.45591467 75.07179405 2.375 79.9375 C-1.40415604 81.62817507 -4.94419638 81.76046318 -9 81 C-13.70197969 77.69861001 -14.70241639 74.44432954 -16 69 C-16.84679735 63.50784009 -17.4892112 57.41635888 -16 52 C-13.08221521 48.81696205 -10.07416296 47.33137825 -6 46 C-6.31453125 45.3709375 -6.6290625 44.741875 -6.953125 44.09375 C-7.84479182 42.31041636 -8.73535567 40.52653095 -9.625 38.7421875 C-10.47068754 37.05561745 -11.32332877 35.37248692 -12.1875 33.6953125 C-12.538125 33.01210937 -12.88875 32.32890625 -13.25 31.625 C-13.56453125 31.01914063 -13.8790625 30.41328125 -14.203125 29.7890625 C-16.24385629 25.20742068 -16.21602869 20.56782599 -16.25 15.625 C-16.270625 14.8825 -16.29125 14.14 -16.3125 13.375 C-16.34672598 8.53202318 -15.778449 5.14264243 -13 1 C-8.97030539 -1.91492253 -4.59740111 -1.31837238 0 0 Z M-5 47 C-6.3308911 49.66178221 -6.11268993 51.68739396 -6.09765625 54.6640625 C-6.09443359 55.78554687 -6.09121094 56.90703125 -6.08789062 58.0625 C-6.07951172 59.238125 -6.07113281 60.41375 -6.0625 61.625 C-6.05798828 62.80835938 -6.05347656 63.99171875 -6.04882812 65.2109375 C-6.03701467 68.14067507 -6.02054258 71.07031272 -6 74 C-5.01 74 -4.02 74 -3 74 C-2.00357036 69.83890984 -1.83416904 65.89813527 -1.8125 61.625 C-1.79832031 60.35914063 -1.78414063 59.09328125 -1.76953125 57.7890625 C-2.01114539 53.81676225 -2.77106735 50.75965958 -4 47 C-4.33 47 -4.66 47 -5 47 Z " fill="#242424" transform="translate(446,36)"/>
<path d="M0 0 C9.24 0 18.48 0 28 0 C28 9.24 28 18.48 28 28 C27.01 28 26.02 28 25 28 C24.73445313 26.90300781 24.46890625 25.80601563 24.1953125 24.67578125 C23.83873185 23.22130753 23.4819504 21.76688302 23.125 20.3125 C22.95097656 19.59126953 22.77695313 18.87003906 22.59765625 18.12695312 C21.30938332 12.36435568 21.30938332 12.36435568 19 7 C16.525 6.505 16.525 6.505 14 6 C14 14.58 14 23.16 14 32 C17.03920174 28.96079826 17.44265837 28.26589018 18.1875 24.3125 C18.42533203 23.10013672 18.42533203 23.10013672 18.66796875 21.86328125 C18.83232422 20.94095703 18.83232422 20.94095703 19 20 C19.99 20 20.98 20 22 20 C22 31.22 22 42.44 22 54 C21.01 54 20.02 54 19 54 C18.79503906 53.22914062 18.59007812 52.45828125 18.37890625 51.6640625 C18.10949219 50.66117188 17.84007812 49.65828125 17.5625 48.625 C17.29566406 47.62726563 17.02882812 46.62953125 16.75390625 45.6015625 C16.09815644 43.04582299 16.09815644 43.04582299 15 41 C15 52.88 15 64.76 15 77 C15.66 77.33 16.32 77.66 17 78 C17 78.66 17 79.32 17 80 C11.39 80 5.78 80 0 80 C0 79.34 0 78.68 0 78 C1.485 77.01 1.485 77.01 3 76 C3.46178704 72.9015585 3.46178704 72.9015585 3.38818359 69.1953125 C3.39344055 68.49597595 3.39869751 67.7966394 3.40411377 67.07611084 C3.41734385 64.75884831 3.40856561 62.44226981 3.3984375 60.125 C3.40045738 58.51839058 3.40336811 56.91178205 3.40713501 55.30517578 C3.41156242 51.93578372 3.40511409 48.56663002 3.39111328 45.19726562 C3.37402095 40.87249785 3.38385993 36.54828853 3.40183067 32.22354126 C3.41265739 28.9053118 3.40922734 25.58721534 3.4014473 22.26898193 C3.3994422 20.67413263 3.4019154 19.07927136 3.40888596 17.48443604 C3.41648246 15.2575266 3.4049229 13.03152881 3.38818359 10.8046875 C3.38579681 9.53608887 3.38341003 8.26749023 3.38095093 6.96044922 C3.19238022 5.49502686 3.19238022 5.49502686 3 4 C2.01 3.34 1.02 2.68 0 2 C0 1.34 0 0.68 0 0 Z " fill="#252525" transform="translate(233,36)"/>
<path d="M0 0 C3.3 0 6.6 0 10 0 C10.05819916 0.92850266 10.11639832 1.85700531 10.17636108 2.81364441 C10.72662312 11.56874107 11.28489142 20.32328263 11.8521328 29.07729626 C12.1434672 33.57771264 12.4317146 38.07828231 12.71289062 42.5793457 C12.98441299 46.92404298 13.26406568 51.26814775 13.54933548 55.61196327 C13.65668384 57.26833942 13.76111367 58.92490742 13.86256027 60.5816555 C14.00527929 62.90421657 14.15841104 65.22587552 14.31396484 67.54760742 C14.37330956 68.57260094 14.37330956 68.57260094 14.43385315 69.61830139 C14.7179317 73.66165734 15.44025899 76.10064749 17 80 C12.38 80 7.76 80 3 80 C3.33 79.01 3.66 78.02 4 77 C4.22325814 74.94106379 4.40705759 72.87766347 4.5625 70.8125 C4.64628906 69.72582031 4.73007812 68.63914062 4.81640625 67.51953125 C4.87699219 66.68808594 4.93757813 65.85664062 5 65 C3.68 65 2.36 65 1 65 C0.97296619 66.93742341 0.95358875 68.87495479 0.9375 70.8125 C0.92589844 71.89144531 0.91429687 72.97039062 0.90234375 74.08203125 C0.86375234 77.06512169 0.86375234 77.06512169 2 80 C-1.96 80 -5.92 80 -10 80 C-9.67 79.01 -9.34 78.02 -9 77 C-8.34 77 -7.68 77 -7 77 C-6.94180084 76.27131714 -6.88360168 75.54263428 -6.82363892 74.79187012 C-6.26860012 67.85054319 -5.71008255 60.90950638 -5.1478672 53.96875763 C-4.85909695 50.40233167 -4.57157082 46.8358154 -4.28710938 43.26904297 C-1.8659923 12.93261987 -1.8659923 12.93261987 0 0 Z M3 33 C2.34 41.58 1.68 50.16 1 59 C2.32 59 3.64 59 5 59 C4.67 50.42 4.34 41.84 4 33 C3.67 33 3.34 33 3 33 Z " fill="#242424" transform="translate(279,36)"/>
<path d="M0 0 C3.3 0 6.6 0 10 0 C10.05819916 0.8695079 10.11639832 1.73901581 10.17636108 2.63487244 C10.72805712 10.85887451 11.28641886 19.08239168 11.8521328 27.30544186 C12.14268824 31.53224918 12.4307307 35.75919554 12.71289062 39.98657227 C12.98566271 44.0718716 13.26521801 48.15665691 13.54933548 52.24118233 C13.65616467 53.79379653 13.76061458 55.34657647 13.86256027 56.89951897 C14.37957139 64.75207102 14.98006955 72.36706581 17 80 C12.71 80 8.42 80 4 80 C4 79.01 4 78.02 4 77 C4.66 77 5.32 77 6 77 C6 73.04 6 69.08 6 65 C4.35 65 2.7 65 1 65 C0.94570041 66.74965358 0.90707177 68.49979787 0.875 70.25 C0.85179687 71.22453125 0.82859375 72.1990625 0.8046875 73.203125 C0.84294911 76.32559635 0.84294911 76.32559635 3 80 C-0.96 80 -4.92 80 -9 80 C-9 79.01 -9 78.02 -9 77 C-8.34 77 -7.68 77 -7 77 C-6.92705215 76.12383026 -6.85410431 75.24766052 -6.77894592 74.34494019 C-6.09006233 66.07612664 -5.39880607 57.80751558 -4.7049036 49.53912163 C-4.34827041 45.28855852 -3.99254564 41.03792351 -3.63891602 36.78710938 C-3.29742521 32.6826187 -2.95352324 28.57833647 -2.60796928 24.47418594 C-2.4767463 22.91062689 -2.34638302 21.34699543 -2.21690559 19.78329086 C-2.03500159 17.58823784 -1.85000504 15.39346531 -1.66430664 13.19873047 C-1.5599379 11.95074677 -1.45556915 10.70276306 -1.34803772 9.41696167 C-1.02492453 6.24470384 -0.56407883 3.13741746 0 0 Z M4 34 C2.27428802 46.45024623 2.27428802 46.45024623 2 59 C2.99 59 3.98 59 5 59 C5 50.75 5 42.5 5 34 C4.67 34 4.34 34 4 34 Z " fill="#252525" transform="translate(398,36)"/>
<path d="M0 0 C8.91 0 17.82 0 27 0 C27 9.24 27 18.48 27 28 C25.68 28 24.36 28 23 28 C22.89042969 27.23816406 22.78085937 26.47632812 22.66796875 25.69140625 C21.66551378 19.16322389 20.27363487 13.20082237 18 7 C15.525 6.505 15.525 6.505 13 6 C13 14.58 13 23.16 13 32 C16.16948699 30.34412478 16.16948699 30.34412478 16.73046875 27.6171875 C16.88128906 26.71226563 17.03210938 25.80734375 17.1875 24.875 C17.34605469 23.96492188 17.50460938 23.05484375 17.66796875 22.1171875 C17.77753906 21.41851562 17.88710938 20.71984375 18 20 C18.99 20 19.98 20 21 20 C21 31.22 21 42.44 21 54 C20.01 54 19.02 54 18 54 C17.79503906 53.14535156 17.59007813 52.29070312 17.37890625 51.41015625 C17.10949219 50.30542969 16.84007813 49.20070312 16.5625 48.0625 C16.29566406 46.96035156 16.02882813 45.85820313 15.75390625 44.72265625 C15.27004275 42.10578746 15.27004275 42.10578746 14 41 C14 53.21 14 65.42 14 78 C14.66 78 15.32 78 16 78 C16 78.66 16 79.32 16 80 C10.72 80 5.44 80 0 80 C0 79.34 0 78.68 0 78 C0.73049057 77.40681725 0.73049057 77.40681725 1.47573853 76.801651 C3.7984711 74.05622081 3.38140191 71.72133275 3.38818359 68.17358398 C3.39344055 67.48385498 3.39869751 66.79412598 3.40411377 66.08349609 C3.41731573 63.80413151 3.40857652 61.5254654 3.3984375 59.24609375 C3.40045796 57.6633338 3.40336917 56.08057475 3.40713501 54.49781799 C3.41155841 51.18147921 3.4051261 47.86538287 3.39111328 44.54907227 C3.3740072 40.29271153 3.38387113 36.03691767 3.40183067 31.78057766 C3.4126563 28.51296189 3.40922809 25.24548118 3.4014473 21.9778614 C3.39944262 20.40813187 3.40191394 18.83839018 3.40888596 17.26867485 C3.41648221 15.07779175 3.40492401 12.88783532 3.38818359 10.69702148 C3.38579681 9.44920395 3.38341003 8.20138641 3.38095093 6.91575623 C3.25523712 5.95355667 3.12952332 4.99135712 3 4 C2.01 3.34 1.02 2.68 0 2 C0 1.34 0 0.68 0 0 Z " fill="#212121" transform="translate(28,36)"/>
<path d="M0 0 C4.62 0 9.24 0 14 0 C14 0.99 14 1.98 14 3 C13.48824219 3.43957031 12.97648438 3.87914062 12.44921875 4.33203125 C10.6848293 5.97233982 10.6848293 5.97233982 11.14453125 8.69921875 C11.36496094 9.68535156 11.58539062 10.67148437 11.8125 11.6875 C12.02519531 12.68136719 12.23789062 13.67523438 12.45703125 14.69921875 C12.72580078 15.83810547 12.72580078 15.83810547 13 17 C14.5056904 11.19233704 15.21824777 6.0018137 15 0 C18.63 0 22.26 0 26 0 C26 0.99 26 1.98 26 3 C25.54246338 3.42659912 25.08492676 3.85319824 24.61352539 4.29272461 C20.85767313 8.2668016 20.47611305 15.28571989 19.4375 20.5625 C19.294263 21.28320679 19.151026 22.00391357 19.00344849 22.74645996 C16.71258056 34.86369544 17.10082161 45.67264374 19.4375 57.75 C19.57856171 58.48364777 19.71962341 59.21729553 19.86495972 59.97317505 C21.16061626 66.48534909 22.42002299 72.3138946 26 78 C26 78.66 26 79.32 26 80 C21.38 80 16.76 80 12 80 C12.33 79.01 12.66 78.02 13 77 C13.66 77 14.32 77 15 77 C14.01 72.05 13.02 67.1 12 62 C11.67 63.546875 11.34 65.09375 11 66.6875 C10.814375 67.55761719 10.62875 68.42773438 10.4375 69.32421875 C9.7923544 73.26997533 9.73037157 76.1911147 11 80 C7.37 80 3.74 80 0 80 C0.66 78.68 1.32 77.36 2 76 C2.55983028 73.71639851 3.05480261 71.41654377 3.5078125 69.109375 C3.63815887 68.44593079 3.76850525 67.78248657 3.90280151 67.09893799 C4.17627871 65.69755504 4.44673471 64.29557954 4.71435547 62.89306641 C5.12133925 60.76910466 5.54243021 58.64828363 5.96484375 56.52734375 C6.23003015 55.15902123 6.49437961 53.79053619 6.7578125 52.421875 C6.9964502 51.19049805 7.23508789 49.95912109 7.48095703 48.69042969 C8.43774554 41.88760039 7.9980667 35.75810561 6.7578125 29.03515625 C6.62937958 28.31637802 6.50094666 27.59759979 6.36862183 26.85704041 C6.09805303 25.35482222 5.82393746 23.8532388 5.54638672 22.35229492 C5.12197703 20.04607331 4.71472979 17.73723599 4.30859375 15.42773438 C4.0426885 13.96335575 3.77579744 12.49915571 3.5078125 11.03515625 C3.3868924 10.34357925 3.26597229 9.65200226 3.14138794 8.93946838 C2.82756107 7.27898891 2.42203039 5.63632812 2 4 C1.34 3.67 0.68 3.34 0 3 C0 2.01 0 1.02 0 0 Z " fill="#292929" transform="translate(521,36)"/>
<path d="M0 0 C8.25 0 16.5 0 25 0 C25.67478081 9.69997412 26.14993071 19.27116304 26 29 C24.68 29 23.36 29 22 29 C20.68 23.06 19.36 17.12 18 11 C17.97740359 19.40586519 17.95905857 27.81170674 17.94818783 36.21759415 C17.94297031 40.12082295 17.93589316 44.02402988 17.92456055 47.92724609 C17.91369153 51.69438644 17.90771463 55.46150576 17.90512276 59.22866058 C17.90327576 60.66555869 17.89966905 62.10245564 17.89426994 63.53934479 C17.88700637 65.55258562 17.88659149 67.56584763 17.88647461 69.57910156 C17.88314369 71.29785492 17.88314369 71.29785492 17.87974548 73.05133057 C17.90870993 76.2094456 17.90870993 76.2094456 19 80 C14.71 80 10.42 80 6 80 C6 79.34 6 78.68 6 78 C6.66 78 7.32 78 8 78 C8 55.89 8 33.78 8 11 C6.35 16.94 4.7 22.88 3 29 C2.01 29 1.02 29 0 29 C0 19.43 0 9.86 0 0 Z " fill="#1A1A1A" transform="translate(352,36)"/>
<path d="M0 0 C4.95 0 9.9 0 15 0 C14 4 14 4 13 5 C12.87603129 7.14668285 12.8219928 9.29742387 12.79467773 11.44750977 C12.77982834 12.45722336 12.77982834 12.45722336 12.76467896 13.48733521 C12.73298162 15.72198925 12.70827426 17.95666458 12.68359375 20.19140625 C12.66303131 21.73697984 12.64203504 23.28254772 12.62062073 24.82810974 C12.56532663 28.90350732 12.51594987 32.97895625 12.46777344 37.05444336 C12.41761183 41.2101704 12.36189796 45.36582252 12.30664062 49.52148438 C12.19896936 57.6809263 12.09754448 65.84043076 12 74 C16.25435486 69.98715499 17.87846824 67.3552132 19.25 61.625 C19.56453125 60.35914063 19.8790625 59.09328125 20.203125 57.7890625 C20.96052394 54.1877048 21.52884909 50.64670804 22 47 C22.99 47 23.98 47 25 47 C25 57.89 25 68.78 25 80 C16.75 80 8.5 80 0 80 C0.66 78.68 1.32 77.36 2 76 C2.32820382 72.68414533 2.32820382 72.68414533 2.31884766 68.93652344 C2.32889328 68.23368225 2.3389389 67.53084106 2.34928894 66.80670166 C2.38010119 64.49093418 2.39715036 62.17528221 2.4140625 59.859375 C2.43277575 58.25082405 2.45234929 56.6422829 2.4727478 55.03375244 C2.52405851 50.8055194 2.56368985 46.57725454 2.60089111 42.34887695 C2.64093744 38.03198379 2.69202691 33.71522289 2.7421875 29.3984375 C2.83893422 20.93238204 2.92334294 12.46626108 3 4 C2.01 3.67 1.02 3.34 0 3 C0 2.01 0 1.02 0 0 Z " fill="#161616" transform="translate(176,36)"/>
<path d="M0 0 C4.95 0 9.9 0 15 0 C14.67 0.99 14.34 1.98 14 3 C13.90484173 5.36045564 13.87205246 7.723565 13.87060547 10.0859375 C13.86885315 10.80332092 13.86710083 11.52070435 13.86529541 12.25982666 C13.86089355 14.6315757 13.86380903 17.0032502 13.8671875 19.375 C13.86651398 21.02262384 13.86554356 22.67024759 13.86428833 24.31787109 C13.86281362 27.77116848 13.86495867 31.22444 13.86962891 34.67773438 C13.87532606 39.10645608 13.87204585 43.53511719 13.86605644 47.96383667 C13.86244474 51.36613421 13.86359223 54.76841736 13.86618423 58.17071533 C13.86685181 59.80381274 13.86603096 61.43691144 13.86370468 63.07000732 C13.8611682 65.35139432 13.86503285 67.63268285 13.87060547 69.9140625 C13.87140106 71.2129541 13.87219666 72.5118457 13.87301636 73.85009766 C13.85508057 77.02817069 13.85508057 77.02817069 15 80 C10.05 80 5.1 80 0 80 C0 79.34 0 78.68 0 78 C0.99 77.505 0.99 77.505 2 77 C2 52.58 2 28.16 2 3 C1.34 2.67 0.68 2.34 0 2 C0 1.34 0 0.68 0 0 Z " fill="#343434" transform="translate(67,36)"/>
<path d="M0 0 C3.96 0 7.92 0 12 0 C11.67 1.32 11.34 2.64 11 4 C10.91186203 6.38376246 10.88236187 8.76988566 10.88647461 11.15527344 C10.88632858 11.86786819 10.88618256 12.58046295 10.8860321 13.31465149 C10.88672709 15.66292395 10.89450006 18.01111645 10.90234375 20.359375 C10.9042094 21.99033566 10.90563261 23.62129688 10.90663147 25.2522583 C10.91044506 29.53974969 10.92026546 33.82720708 10.93133545 38.11468506 C10.94157447 42.49181661 10.94613443 46.86895367 10.95117188 51.24609375 C10.96188877 59.83074475 10.97895128 68.41536814 11 77 C11.66 77 12.32 77 13 77 C13 77.66 13 78.32 13 79 C8.38 79 3.76 79 -1 79 C-1 78.34 -1 77.68 -1 77 C-0.01 76.505 -0.01 76.505 1 76 C1.02315348 66.53379822 1.04093046 57.06760616 1.05181217 47.60138226 C1.0570344 43.20600574 1.06412013 38.81064858 1.07543945 34.4152832 C1.08629171 30.17482627 1.09228182 25.93438797 1.09487724 21.69391823 C1.09672726 20.07477335 1.1003398 18.4556295 1.10573006 16.83649254 C1.11297148 14.57155515 1.11398962 12.30669511 1.11352539 10.04174805 C1.115746 8.75157272 1.11796661 7.4613974 1.12025452 6.13212585 C1.14497869 2.96893921 1.14497869 2.96893921 0 0 Z " fill="#1E1E1E" transform="translate(549,37)"/>
<path d="M0 0 C8.91 0 17.82 0 27 0 C27 1.32 27 2.64 27 4 C16.605 4.495 16.605 4.495 6 5 C6 5.33 6 5.66 6 6 C12.27 6.33 18.54 6.66 25 7 C25.33 8.65 25.66 10.3 26 12 C19.4 12 12.8 12 6 12 C6.33 12.66 6.66 13.32 7 14 C13.27 14 19.54 14 26 14 C26.33 15.65 26.66 17.3 27 19 C22.68751391 19.02886537 18.37505238 19.04675255 14.0625 19.0625 C12.83080078 19.07087891 11.59910156 19.07925781 10.33007812 19.08789062 C9.16025391 19.09111328 7.99042969 19.09433594 6.78515625 19.09765625 C5.15912476 19.10551147 5.15912476 19.10551147 3.50024414 19.11352539 C1 19 1 19 0 18 C-0.08631874 16.65732587 -0.10706473 15.31025678 -0.09765625 13.96484375 C-0.09515869 13.23644287 -0.09266113 12.50804199 -0.09008789 11.75756836 C-0.08098389 10.8269458 -0.07187988 9.89632324 -0.0625 8.9375 C-0.041875 5.988125 -0.02125 3.03875 0 0 Z " fill="#4A4A4A" transform="translate(383,125)"/>
<path d="M0 0 C1.99788088 2.99682132 2.35935228 3.94085146 2.5 7.375 C2.57734375 8.50035156 2.57734375 8.50035156 2.65625 9.6484375 C1.8228661 12.63472981 0.26369682 14.15546051 -2.17724609 16.01416016 C-5.34765507 17.72888175 -8.56644671 17.64362871 -12.0625 17.5 C-13.10374023 17.50386719 -13.10374023 17.50386719 -14.16601562 17.5078125 C-18.59446444 17.42370141 -21.46228465 16.66485848 -25 14 C-27.12822731 11.38808467 -27.11561921 9.2423439 -26.875 6 C-26.41603187 3.13411762 -25.99245241 1.98948728 -24.25 -0.4375 C-17.35864992 -5.22315978 -6.98415117 -3.92858503 0 0 Z M-20.94921875 3.859375 C-22.21190661 5.99619279 -22.21190661 5.99619279 -21.875 8.625 C-21.1432514 11.32987773 -21.1432514 11.32987773 -18 13 C-15.35767058 13.27975977 -15.35767058 13.27975977 -12.5 13.1875 C-11.5409375 13.18105469 -10.581875 13.17460937 -9.59375 13.16796875 C-6.88502233 13.10292931 -6.88502233 13.10292931 -4 12 C-2.61874982 9.23749964 -2.80920694 7.05268901 -3 4 C-5.85936856 1.14063144 -7.95591212 1.66608966 -11.9375 1.625 C-13.80728516 1.58246094 -13.80728516 1.58246094 -15.71484375 1.5390625 C-19.04455387 1.68076068 -19.04455387 1.68076068 -20.94921875 3.859375 Z " fill="#424242" transform="translate(245,127)"/>
<path d="M0 0 C7.04338968 0 8.62285223 0.54731888 13.3125 4.9375 C16.90135359 8.32709279 16.90135359 8.32709279 21 11 C21.33 7.37 21.66 3.74 22 0 C23.65 0 25.3 0 27 0 C27 6.27 27 12.54 27 19 C20.2771855 19 20.2771855 19 17.0625 15.8125 C13.55891262 12.49118017 9.97652026 9.73385768 6 7 C5.67 10.96 5.34 14.92 5 19 C3.35 19 1.7 19 0 19 C0 12.73 0 6.46 0 0 Z " fill="#3A3A3A" transform="translate(346,125)"/>
<path d="M0 0 C7.875 0 7.875 0 10.74609375 2.40625 C11.35517578 2.90253906 11.96425781 3.39882812 12.59179688 3.91015625 C13.20087891 4.43480469 13.80996094 4.95945313 14.4375 5.5 C15.07365234 6.02464844 15.70980469 6.54929688 16.36523438 7.08984375 C17.92281827 8.37807104 19.46322084 9.68702363 21 11 C21.33 7.37 21.66 3.74 22 0 C23.65 0 25.3 0 27 0 C27 6.27 27 12.54 27 19 C19.125 17.875 19.125 17.875 16.25390625 15.27734375 C15.64482422 14.73916016 15.03574219 14.20097656 14.40820312 13.64648438 C13.79912109 13.08251953 13.19003906 12.51855469 12.5625 11.9375 C11.92634766 11.36966797 11.29019531 10.80183594 10.63476562 10.21679688 C9.07821143 8.82409049 7.53744811 7.4137699 6 6 C5.67 10.29 5.34 14.58 5 19 C3.35 19 1.7 19 0 19 C0 12.73 0 6.46 0 0 Z " fill="#3A3A3A" transform="translate(257,125)"/>
<path d="M0 0 C1.65 0 3.3 0 5 0 C5.33 4.62 5.66 9.24 6 14 C11.94 14 17.88 14 24 14 C24 15.65 24 17.3 24 19 C16.08 19 8.16 19 0 19 C0 12.73 0 6.46 0 0 Z " fill="#525252" transform="translate(295,125)"/>
<path d="M0 0 C0.33 0 0.66 0 1 0 C0.94650391 1.27939453 0.89300781 2.55878906 0.83789062 3.87695312 C-1.66826324 30.50029072 -1.66826324 30.50029072 7.79296875 53.88671875 C11.05959106 56.65856866 14.24659212 58.9222962 18 61 C17.34 61.66 16.68 62.32 16 63 C14.41348318 61.44073252 12.83092685 59.87743482 11.25 58.3125 C10.36828125 57.44238281 9.4865625 56.57226562 8.578125 55.67578125 C6 53 6 53 2 48 C1.67 57.24 1.34 66.48 1 76 C0.67 76 0.34 76 0 76 C0 50.92 0 25.84 0 0 Z " fill="#FDFDFD" transform="translate(124,40)"/>
<path d="M0 0 C0.33 0 0.66 0 1 0 C1 9.9 1 19.8 1 30 C10.15823981 22.54399365 10.15823981 22.54399365 18.44140625 14.43359375 C20 13 20 13 22 13 C22.226875 12.443125 22.45375 11.88625 22.6875 11.3125 C25.15838962 6.95902782 28.94485032 3.85362385 33 1 C31.40279245 4.81705534 28.85617993 7.584382 26.0625 10.5625 C25.57885986 11.08263672 25.09521973 11.60277344 24.59692383 12.13867188 C9.43246348 28.34937952 9.43246348 28.34937952 3 32 C2.01 31.67 1.02 31.34 0 31 C0 20.77 0 10.54 0 0 Z " fill="#9F9F9F" transform="translate(483,82)"/>
<path d="M0 0 C1.875 1.6875 1.875 1.6875 3 4 C3 7.0625 3 7.0625 2 10 C-0.25 12 -0.25 12 -3 13 C-6.17435434 12.18795587 -7.68180575 11.31819425 -10 9 C-10.55979644 3.73791349 -10.55979644 3.73791349 -8.625 1.1875 C-5.40611203 -1.16476428 -3.80723105 -1.20717082 0 0 Z M-6 1 C-2 2 -2 2 -2 2 Z M-8 3 C-8 4.98 -8 6.96 -8 9 C-7.67 9 -7.34 9 -7 9 C-7 7.02 -7 5.04 -7 3 C-7.33 3 -7.66 3 -8 3 Z M-1 3 C-1 4.98 -1 6.96 -1 9 C-0.34 8.67 0.32 8.34 1 8 C0.67 6.35 0.34 4.7 0 3 C-0.33 3 -0.66 3 -1 3 Z M-5 7 C-5 8.32 -5 9.64 -5 11 C-4.34 11 -3.68 11 -3 11 C-3 9.68 -3 8.36 -3 7 C-3.66 7 -4.32 7 -5 7 Z " fill="#848484" transform="translate(506,104)"/>
<path d="M0 0 C1.65 0 3.3 0 5 0 C5 6.27 5 12.54 5 19 C3.35 19 1.7 19 0 19 C0 12.73 0 6.46 0 0 Z " fill="#3D3D3D" transform="translate(330,125)"/>
<path d="M0 0 C2.64 0.33 5.28 0.66 8 1 C8.37890625 3.18359375 8.37890625 3.18359375 8 6 C5.99998401 7.95189531 4.19120151 9.46540813 1.9375 11.0625 C1.37611328 11.48337891 0.81472656 11.90425781 0.23632812 12.33789062 C-3.6764636 15.2221771 -7.74547383 17.65323589 -12 20 C-12 18.33333333 -12 16.66666667 -12 15 C-9.59297475 13.24728296 -7.18859301 11.60768146 -4.6875 10 C-3.65206055 9.32324219 -3.65206055 9.32324219 -2.59570312 8.6328125 C-1.30502876 7.78982132 -0.01248476 6.94968115 1.2824707 6.11328125 C2.86346827 5.08849818 4.43235594 4.04509604 6 3 C3.03 2.505 3.03 2.505 0 2 C0 1.34 0 0.68 0 0 Z " fill="#4E4E4E" transform="translate(472,114)"/>
<path d="M0 0 C0 4.40793531 -2.80101348 6.40888871 -5.6875 9.4375 C-6.48317383 10.29698242 -6.48317383 10.29698242 -7.29492188 11.17382812 C-10.33575455 14.41613928 -13.44160408 17.31304798 -17 20 C-17 17 -17 17 -14.625 14.3125 C-12 12 -12 12 -10 12 C-9.773125 11.443125 -9.54625 10.88625 -9.3125 10.3125 C-7.63281165 7.3530491 -5.45866715 5.33873216 -3 3 C-2.401875 2.401875 -1.80375 1.80375 -1.1875 1.1875 C-0.795625 0.795625 -0.40375 0.40375 0 0 Z " fill="#9C9C9C" transform="translate(515,83)"/>
<path d="M0 0 C-0.33 1.65 -0.66 3.3 -1 5 C-1.99 4.67 -2.98 4.34 -4 4 C-4.33 5.65 -4.66 7.3 -5 9 C-7 7.875 -7 7.875 -9 6 C-9.25 2.8125 -9.25 2.8125 -9 0 C-5.67465243 -1.10844919 -3.37817425 -0.84454356 0 0 Z " fill="#767676" transform="translate(505,107)"/>
<path d="M0 0 C0.99 0 1.98 0 3 0 C3 10.23 3 20.46 3 31 C2.67 31 2.34 31 2 31 C1.67 23.08 1.34 15.16 1 7 C0.67 7 0.34 7 0 7 C0 4.69 0 2.38 0 0 Z " fill="#2A2A2A" transform="translate(198,83)"/>
<path d="M0 0 C0.66 0.33 1.32 0.66 2 1 C2 1.99 2 2.98 2 4 C0.03125 5.60546875 0.03125 5.60546875 -2.5 7.1875 C-3.3353125 7.71730469 -4.170625 8.24710938 -5.03125 8.79296875 C-5.6809375 9.19128906 -6.330625 9.58960938 -7 10 C-7.66 9.34 -8.32 8.68 -9 8 C-7.83917375 4.51752126 -7.09067524 4.11180756 -4.0625 2.25 C-3.35222656 1.80140625 -2.64195312 1.3528125 -1.91015625 0.890625 C-1.27980469 0.59671875 -0.64945312 0.3028125 0 0 Z " fill="#4E4E4E" transform="translate(468,124)"/>
<path d="M0 0 C5.66129431 4.69766975 10.85228904 9.74723372 16 15 C15.34 15.66 14.68 16.32 14 17 C12.41348318 15.44073252 10.83092685 13.87743482 9.25 12.3125 C8.36828125 11.44238281 7.4865625 10.57226562 6.578125 9.67578125 C0 2.84848485 0 2.84848485 0 0 Z " fill="#B6B6B6" transform="translate(126,86)"/>
<path d="M0 0 C0 3.77910478 -0.99703962 4.46106101 -3.5 7.1875 C-4.1496875 7.90292969 -4.799375 8.61835937 -5.46875 9.35546875 C-5.9740625 9.89816406 -6.479375 10.44085938 -7 11 C-7.66 10.34 -8.32 9.68 -9 9 C-6 6 -3 3 0 0 Z " fill="#DADADA" transform="translate(515,83)"/>
<path d="M0 0 C0.66 0.99 1.32 1.98 2 3 C2.66 3 3.32 3 4 3 C3.25 4.9375 3.25 4.9375 2 7 C0 7.875 0 7.875 -2 8 C-2.66 7.34 -3.32 6.68 -4 6 C-3.01 6 -2.02 6 -1 6 C-0.67 4.02 -0.34 2.04 0 0 Z " fill="#919191" transform="translate(504,109)"/>
<path d="M0 0 C2.64 0.33 5.28 0.66 8 1 C8 2.65 8 4.3 8 6 C7.01 6.495 7.01 6.495 6 7 C5.01 6.34 4.02 5.68 3 5 C3.99 4.34 4.98 3.68 6 3 C3.03 2.505 3.03 2.505 0 2 C0 1.34 0 0.68 0 0 Z " fill="#6D6D6D" transform="translate(472,114)"/>
<path d="M0 0 C0.33 0 0.66 0 1 0 C1.06058594 0.90363281 1.12117188 1.80726562 1.18359375 2.73828125 C1.26738281 3.91777344 1.35117187 5.09726562 1.4375 6.3125 C1.51871094 7.48425781 1.59992188 8.65601563 1.68359375 9.86328125 C1.8867371 13.02590958 1.8867371 13.02590958 3 16 C2.01 16 1.02 16 0 16 C0 10.72 0 5.44 0 0 Z " fill="#686868" transform="translate(352,49)"/>
<path d="M0 0 C4.55384615 -0.36923077 4.55384615 -0.36923077 6.8125 1.5 C7.204375 1.995 7.59625 2.49 8 3 C7.01 3.66 6.02 4.32 5 5 C3.35 3.35 1.7 1.7 0 0 Z " fill="#5B5B5B" transform="translate(159,119)"/>
<path d="M0 0 C1 4 1 4 1 4 Z " fill="#FFFFFF" transform="translate(325,47)"/>
<path d="" fill="#FFFFFF" transform="translate(0,0)"/>
<path d="" fill="#FFFFFF" transform="translate(0,0)"/>
<path d="" fill="#FFFFFF" transform="translate(0,0)"/>
<path d="" fill="#FFFFFF" transform="translate(0,0)"/>
<path d="M0 0 C2 1 2 1 2 1 Z " fill="#FFFFFF" transform="translate(502,101)"/>
<path d="" fill="#FFFFFF" transform="translate(0,0)"/>
<path d="" fill="#FFFFFF" transform="translate(0,0)"/>
<path d="" fill="#FFFFFF" transform="translate(0,0)"/>
<path d="" fill="#FFFFFF" transform="translate(0,0)"/>
<path d="" fill="#FFFFFF" transform="translate(0,0)"/>
<path d="M0 0 C2 1 2 1 2 1 Z " fill="#FFFFFF" transform="translate(98,41)"/>
<path d="" fill="#FFFFFF" transform="translate(0,0)"/>
<path d="M0 0 C2 1 2 1 2 1 Z " fill="#FFFFFF" transform="translate(468,34)"/>
<path d="M0 0 C2 1 2 1 2 1 Z " fill="#FFFFFF" transform="translate(434,34)"/>
<path d="M0 0 C2 1 2 1 2 1 Z " fill="#FFFFFF" transform="translate(99,34)"/>
<path d="" fill="#FFFFFF" transform="translate(0,0)"/>
<path d="" fill="#FFFFFF" transform="translate(0,0)"/>
<path d="" fill="#FFFFFF" transform="translate(0,0)"/>
<path d="" fill="#FFFFFF" transform="translate(0,0)"/>
<path d="" fill="#FFFFFF" transform="translate(0,0)"/>
<path d="" fill="#FFFFFF" transform="translate(0,0)"/>
<path d="" fill="#FFFFFF" transform="translate(0,0)"/>
<path d="" fill="#FFFFFF" transform="translate(0,0)"/>
<path d="" fill="#FFFFFF" transform="translate(0,0)"/>
<path d="" fill="#FFFFFF" transform="translate(0,0)"/>
<path d="" fill="#FFFFFF" transform="translate(0,0)"/>
<path d="" fill="#FFFFFF" transform="translate(0,0)"/>
<path d="" fill="#FFFFFF" transform="translate(0,0)"/>
<path d="" fill="#FFFFFF" transform="translate(0,0)"/>
<path d="" fill="#FFFFFF" transform="translate(0,0)"/>
<path d="" fill="#FFFFFF" transform="translate(0,0)"/>
<path d="" fill="#FFFFFF" transform="translate(0,0)"/>
<path d="" fill="#FFFFFF" transform="translate(0,0)"/>
<path d="" fill="#FFFFFF" transform="translate(0,0)"/>
<path d="" fill="#FFFFFF" transform="translate(0,0)"/>
<path d="" fill="#FFFFFF" transform="translate(0,0)"/>
<path d="" fill="#FFFFFF" transform="translate(0,0)"/>
<path d="" fill="#FFFFFF" transform="translate(0,0)"/>
<path d="" fill="#FFFFFF" transform="translate(0,0)"/>
<path d="" fill="#FFFFFF" transform="translate(0,0)"/>
<path d="" fill="#FFFFFF" transform="translate(0,0)"/>
<path d="" fill="#FFFFFF" transform="translate(0,0)"/>
<path d="" fill="#FFFFFF" transform="translate(0,0)"/>
<path d="" fill="#FFFFFF" transform="translate(0,0)"/>
<path d="" fill="#FFFFFF" transform="translate(0,0)"/>
<path d="" fill="#FFFFFF" transform="translate(0,0)"/>
<path d="" fill="#FFFFFF" transform="translate(0,0)"/>
<path d="" fill="#FFFFFF" transform="translate(0,0)"/>
<path d="" fill="#FFFFFF" transform="translate(0,0)"/>
<path d="" fill="#FFFFFF" transform="translate(0,0)"/>
</svg>
